<svg xmlns="http://www.w3.org/2000/svg" xmlns:xlink="http://www.w3.org/1999/xlink" contentStyleType="text/css" data-diagram-type="DESCRIPTION" height="827px" preserveAspectRatio="none" style="width:1968px;height:827px;background:#FFFFFF;" version="1.1" viewBox="0 0 1968 827" width="1968px" zoomAndPan="magnify"><title>Arquitectura en Google Cloud Platform: atomic-energy-438322-m8</title><defs/><g><text fill="#000000" font-family="sans-serif" font-size="14" font-weight="bold" lengthAdjust="spacing" textLength="526.2373" x="714.3143" y="22.9951">Arquitectura en Google Cloud Platform: atomic-energy-438322-m8</text><!--cluster IAM--><g id="cluster_IAM"><path d="M1090.29,68.5069 L1282.2793,68.5069 A3.75,3.75 0 0 1 1284.7793,71.0069 L1291.7793,90.8038 L1518.29,90.8038 A2.5,2.5 0 0 1 1520.79,93.3038 L1520.79,163.2969 A2.5,2.5 0 0 1 1518.29,165.7969 L1090.29,165.7969 A2.5,2.5 0 0 1 1087.79,163.2969 L1087.79,71.0069 A2.5,2.5 0 0 1 1090.29,68.5069 " fill="none" style="stroke:#000000;stroke-width:1.5;"/><line style="stroke:#000000;stroke-width:1.5;" x1="1087.79" x2="1291.7793" y1="90.8038" y2="90.8038"/><text fill="#000000" font-family="sans-serif" font-size="14" font-weight="bold" lengthAdjust="spacing" textLength="190.9893" x="1091.79" y="83.502">Gesti&#243;n de Credenciales</text></g><!--cluster Capa 2: Red y Subredes--><g id="cluster_Capa 2: Red y Subredes"><path d="M430.29,43.2969 L619.0595,43.2969 A3.75,3.75 0 0 1 621.5595,45.7969 L628.5595,65.5938 L727.29,65.5938 A2.5,2.5 0 0 1 729.79,68.0938 L729.79,769.5269 A2.5,2.5 0 0 1 727.29,772.0269 L430.29,772.0269 A2.5,2.5 0 0 1 427.79,769.5269 L427.79,45.7969 A2.5,2.5 0 0 1 430.29,43.2969 " fill="none" style="stroke:#000000;stroke-width:1.5;"/><line style="stroke:#000000;stroke-width:1.5;" x1="427.79" x2="628.5595" y1="65.5938" y2="65.5938"/><text fill="#000000" font-family="sans-serif" font-size="14" font-weight="bold" lengthAdjust="spacing" textLength="187.7695" x="431.79" y="58.292">Capa 2: Red y Subredes</text></g><!--cluster VPC--><g id="cluster_VPC"><polygon fill="none" points="459.79,104.2969,469.79,94.2969,697.79,94.2969,697.79,292.6969,687.79,302.6969,459.79,302.6969,459.79,104.2969" style="stroke:#181818;stroke-width:1;"/><line style="stroke:#181818;stroke-width:1;" x1="687.79" x2="697.79" y1="104.2969" y2="94.2969"/><line style="stroke:#181818;stroke-width:1;" x1="459.79" x2="687.79" y1="104.2969" y2="104.2969"/><line style="stroke:#181818;stroke-width:1;" x1="687.79" x2="687.79" y1="104.2969" y2="302.6969"/><text fill="#000000" font-family="sans-serif" font-size="14" font-weight="bold" lengthAdjust="spacing" textLength="140.9502" x="504.3149" y="120.292">VPC: tripcode-vpc</text></g><!--cluster Capa 3: M?quinas Virtuales--><g id="cluster_Capa 3: M&#225;quinas Virtuales"><path d="M756.29,334.6969 L973.6269,334.6969 A3.75,3.75 0 0 1 976.1269,337.1969 L983.1269,356.9938 L1257.29,356.9938 A2.5,2.5 0 0 1 1259.79,359.4938 L1259.79,566.0869 A2.5,2.5 0 0 1 1257.29,568.5869 L756.29,568.5869 A2.5,2.5 0 0 1 753.79,566.0869 L753.79,337.1969 A2.5,2.5 0 0 1 756.29,334.6969 " fill="none" style="stroke:#000000;stroke-width:1.5;"/><line style="stroke:#000000;stroke-width:1.5;" x1="753.79" x2="983.1269" y1="356.9938" y2="356.9938"/><text fill="#000000" font-family="sans-serif" font-size="14" font-weight="bold" lengthAdjust="spacing" textLength="216.3369" x="757.79" y="349.692">Capa 3: M&#225;quinas Virtuales</text></g><!--cluster VMs--><g id="cluster_VMs"><polygon fill="none" points="785.79,395.6969,795.79,385.6969,1227.79,385.6969,1227.79,526.5869,1217.79,536.5869,785.79,536.5869,785.79,395.6969" style="stroke:#181818;stroke-width:1;"/><line style="stroke:#181818;stroke-width:1;" x1="1217.79" x2="1227.79" y1="395.6969" y2="385.6969"/><line style="stroke:#181818;stroke-width:1;" x1="785.79" x2="1217.79" y1="395.6969" y2="395.6969"/><line style="stroke:#181818;stroke-width:1;" x1="1217.79" x2="1217.79" y1="395.6969" y2="536.5869"/><text fill="#000000" font-family="sans-serif" font-size="14" font-weight="bold" lengthAdjust="spacing" textLength="105.3828" x="950.0986" y="411.692">VM Instances</text></g><!--cluster Capa 4: Cl?ster de Kubernetes--><g id="cluster_Capa 4: Cl&#250;ster de Kubernetes"><path d="M1286.29,339.6969 L1528.5166,339.6969 A3.75,3.75 0 0 1 1531.0166,342.1969 L1538.0166,361.9938 L1852.29,361.9938 A2.5,2.5 0 0 1 1854.79,364.4938 L1854.79,566.0869 A2.5,2.5 0 0 1 1852.29,568.5869 L1286.29,568.5869 A2.5,2.5 0 0 1 1283.79,566.0869 L1283.79,342.1969 A2.5,2.5 0 0 1 1286.29,339.6969 " fill="none" style="stroke:#000000;stroke-width:1.5;"/><line style="stroke:#000000;stroke-width:1.5;" x1="1283.79" x2="1538.0166" y1="361.9938" y2="361.9938"/><text fill="#000000" font-family="sans-serif" font-size="14" font-weight="bold" lengthAdjust="spacing" textLength="241.2266" x="1287.79" y="354.692">Capa 4: Cl&#250;ster de Kubernetes</text></g><!--cluster Cluster--><g id="cluster_Cluster"><path d="M1318.29,390.6969 L1531.7441,390.6969 A3.75,3.75 0 0 1 1534.2441,393.1969 L1541.2441,412.9938 L1820.29,412.9938 A2.5,2.5 0 0 1 1822.79,415.4938 L1822.79,534.0869 A2.5,2.5 0 0 1 1820.29,536.5869 L1318.29,536.5869 A2.5,2.5 0 0 1 1315.79,534.0869 L1315.79,393.1969 A2.5,2.5 0 0 1 1318.29,390.6969 " fill="none" style="stroke:#000000;stroke-width:1.5;"/><line style="stroke:#000000;stroke-width:1.5;" x1="1315.79" x2="1541.2441" y1="412.9938" y2="412.9938"/><text fill="#000000" font-family="sans-serif" font-size="14" font-weight="bold" lengthAdjust="spacing" textLength="212.4541" x="1319.79" y="405.692">Cluster: tripcode-mongodb</text></g><!--cluster Capa 5: Blockchain--><g id="cluster_Capa 5: Blockchain"><path d="M1110.29,592.5869 L1260.7441,592.5869 A3.75,3.75 0 0 1 1263.2441,595.0869 L1270.2441,614.8838 L1453.29,614.8838 A2.5,2.5 0 0 1 1455.79,617.3838 L1455.79,817.6769 A2.5,2.5 0 0 1 1453.29,820.1769 L1110.29,820.1769 A2.5,2.5 0 0 1 1107.79,817.6769 L1107.79,595.0869 A2.5,2.5 0 0 1 1110.29,592.5869 " fill="none" style="stroke:#000000;stroke-width:1.5;"/><line style="stroke:#000000;stroke-width:1.5;" x1="1107.79" x2="1270.2441" y1="614.8838" y2="614.8838"/><text fill="#000000" font-family="sans-serif" font-size="14" font-weight="bold" lengthAdjust="spacing" textLength="149.4541" x="1111.79" y="607.582">Capa 5: Blockchain</text></g><!--cluster Blockchain--><g id="cluster_Blockchain"><path d="M1139.79,653.5869 C1139.79,643.5869 1281.79,643.5869 1281.79,643.5869 C1281.79,643.5869 1423.79,643.5869 1423.79,653.5869 L1423.79,778.1769 C1423.79,788.1769 1281.79,788.1769 1281.79,788.1769 C1281.79,788.1769 1139.79,788.1769 1139.79,778.1769 L1139.79,653.5869 " fill="none" style="stroke:#181818;stroke-width:1;"/><path d="M1139.79,653.5869 C1139.79,663.5869 1281.79,663.5869 1281.79,663.5869 C1281.79,663.5869 1423.79,663.5869 1423.79,653.5869 " fill="none" style="stroke:#181818;stroke-width:1;"/><text fill="#000000" font-family="sans-serif" font-size="14" font-weight="bold" lengthAdjust="spacing" textLength="155.415" x="1204.0825" y="678.582">Nodo de Blockchain</text></g><!--entity Regi?n configurada--><g id="elem_Regi&#243;n configurada"><rect fill="#F1F1F1" height="46.2969" rx="2.5" ry="2.5" style="stroke:#181818;stroke-width:0.5;" width="176.5205" x="1103.53" y="103.5069"/><rect fill="#F1F1F1" height="10" style="stroke:#181818;stroke-width:0.5;" width="15" x="1260.0505" y="108.5069"/><rect fill="#F1F1F1" height="2" style="stroke:#181818;stroke-width:0.5;" width="4" x="1258.0505" y="110.5069"/><rect fill="#F1F1F1" height="2" style="stroke:#181818;stroke-width:0.5;" width="4" x="1258.0505" y="114.5069"/><text fill="#000000" font-family="sans-serif" font-size="14" lengthAdjust="spacing" textLength="136.5205" x="1118.53" y="136.502">Regi&#243;n configurada</text></g><!--entity Credenciales seguras--><g id="elem_Credenciales seguras"><rect fill="#F1F1F1" height="46.2969" rx="2.5" ry="2.5" style="stroke:#181818;stroke-width:0.5;" width="190.2266" x="1314.68" y="103.5069"/><rect fill="#F1F1F1" height="10" style="stroke:#181818;stroke-width:0.5;" width="15" x="1484.9066" y="108.5069"/><rect fill="#F1F1F1" height="2" style="stroke:#181818;stroke-width:0.5;" width="4" x="1482.9066" y="110.5069"/><rect fill="#F1F1F1" height="2" style="stroke:#181818;stroke-width:0.5;" width="4" x="1482.9066" y="114.5069"/><text fill="#000000" font-family="sans-serif" font-size="14" lengthAdjust="spacing" textLength="150.2266" x="1329.68" y="136.502">Credenciales seguras</text></g><!--entity NATRouter--><g id="elem_NATRouter"><rect fill="#F1F1F1" height="46.2969" rx="2.5" ry="2.5" style="stroke:#181818;stroke-width:0.5;" width="263.125" x="448.23" y="449.9869"/><rect fill="#F1F1F1" height="10" style="stroke:#181818;stroke-width:0.5;" width="15" x="691.355" y="454.9869"/><rect fill="#F1F1F1" height="2" style="stroke:#181818;stroke-width:0.5;" width="4" x="689.355" y="456.9869"/><rect fill="#F1F1F1" height="2" style="stroke:#181818;stroke-width:0.5;" width="4" x="689.355" y="460.9869"/><text fill="#000000" font-family="sans-serif" font-size="14" lengthAdjust="spacing" textLength="223.125" x="463.23" y="482.982">Router NAT: tripcode-nat-router</text></g><!--entity CloudNAT--><g id="elem_CloudNAT"><rect fill="#F1F1F1" height="46.2969" rx="2.5" ry="2.5" style="stroke:#181818;stroke-width:0.5;" width="207.9863" x="475.8" y="709.7269"/><rect fill="#F1F1F1" height="10" style="stroke:#181818;stroke-width:0.5;" width="15" x="663.7863" y="714.7269"/><rect fill="#F1F1F1" height="2" style="stroke:#181818;stroke-width:0.5;" width="4" x="661.7863" y="716.7269"/><rect fill="#F1F1F1" height="2" style="stroke:#181818;stroke-width:0.5;" width="4" x="661.7863" y="720.7269"/><text fill="#000000" font-family="sans-serif" font-size="14" lengthAdjust="spacing" textLength="167.9863" x="490.8" y="742.722">Cloud NAT: tripcode-nat</text></g><!--entity Subnet--><g id="elem_Subnet"><rect fill="#F1F1F1" height="68.8906" rx="2.5" ry="2.5" style="stroke:#181818;stroke-width:0.5;" width="189.9346" x="483.82" y="209.7969"/><text fill="#000000" font-family="sans-serif" font-size="14" lengthAdjust="spacing" textLength="169.9346" x="493.82" y="232.792">Subred: tripcode-subnet</text><text fill="#000000" font-family="sans-serif" font-size="14" lengthAdjust="spacing" textLength="134.2168" x="493.82" y="249.0889">Rango: 10.0.0.0/16</text><text fill="#000000" font-family="sans-serif" font-size="14" lengthAdjust="spacing" textLength="50.6953" x="493.82" y="265.3857">Aislada</text></g><!--entity VM: tripcode-vm-0\nTipo: e2-medium\nSO: Debian 12--><g id="elem_VM: tripcode-vm-0\nTipo: e2-medium\nSO: Debian 12"><rect fill="#F1F1F1" height="78.8906" rx="2.5" ry="2.5" style="stroke:#181818;stroke-width:0.5;" width="169.541" x="810.02" y="433.6969"/><rect fill="#F1F1F1" height="10" style="stroke:#181818;stroke-width:0.5;" width="15" x="959.561" y="438.6969"/><rect fill="#F1F1F1" height="2" style="stroke:#181818;stroke-width:0.5;" width="4" x="957.561" y="440.6969"/><rect fill="#F1F1F1" height="2" style="stroke:#181818;stroke-width:0.5;" width="4" x="957.561" y="444.6969"/><text fill="#000000" font-family="sans-serif" font-size="14" lengthAdjust="spacing" textLength="129.541" x="825.02" y="466.692">VM: tripcode-vm-0</text><text fill="#000000" font-family="sans-serif" font-size="14" lengthAdjust="spacing" textLength="119.1709" x="825.02" y="482.9889">Tipo: e2-medium</text><text fill="#000000" font-family="sans-serif" font-size="14" lengthAdjust="spacing" textLength="100.96" x="825.02" y="499.2857">SO: Debian 12</text></g><!--entity VM: tripcode-vm-1\nTipo: e2-medium\nSO: Debian 12--><g id="elem_VM: tripcode-vm-1\nTipo: e2-medium\nSO: Debian 12"><rect fill="#F1F1F1" height="78.8906" rx="2.5" ry="2.5" style="stroke:#181818;stroke-width:0.5;" width="169.541" x="1015.02" y="433.6969"/><rect fill="#F1F1F1" height="10" style="stroke:#181818;stroke-width:0.5;" width="15" x="1164.561" y="438.6969"/><rect fill="#F1F1F1" height="2" style="stroke:#181818;stroke-width:0.5;" width="4" x="1162.561" y="440.6969"/><rect fill="#F1F1F1" height="2" style="stroke:#181818;stroke-width:0.5;" width="4" x="1162.561" y="444.6969"/><text fill="#000000" font-family="sans-serif" font-size="14" lengthAdjust="spacing" textLength="129.541" x="1030.02" y="466.692">VM: tripcode-vm-1</text><text fill="#000000" font-family="sans-serif" font-size="14" lengthAdjust="spacing" textLength="119.1709" x="1030.02" y="482.9889">Tipo: e2-medium</text><text fill="#000000" font-family="sans-serif" font-size="14" lengthAdjust="spacing" textLength="100.96" x="1030.02" y="499.2857">SO: Debian 12</text></g><!--entity Nodo inicial\nTipo: e2-medium\nDisco: 80GB--><g id="elem_Nodo inicial\nTipo: e2-medium\nDisco: 80GB"><rect fill="#F1F1F1" height="78.8906" rx="2.5" ry="2.5" style="stroke:#181818;stroke-width:0.5;" width="159.1709" x="1340.2" y="433.6969"/><rect fill="#F1F1F1" height="10" style="stroke:#181818;stroke-width:0.5;" width="15" x="1479.3709" y="438.6969"/><rect fill="#F1F1F1" height="2" style="stroke:#181818;stroke-width:0.5;" width="4" x="1477.3709" y="440.6969"/><rect fill="#F1F1F1" height="2" style="stroke:#181818;stroke-width:0.5;" width="4" x="1477.3709" y="444.6969"/><text fill="#000000" font-family="sans-serif" font-size="14" lengthAdjust="spacing" textLength="81.6484" x="1355.2" y="466.692">Nodo inicial</text><text fill="#000000" font-family="sans-serif" font-size="14" lengthAdjust="spacing" textLength="119.1709" x="1355.2" y="482.9889">Tipo: e2-medium</text><text fill="#000000" font-family="sans-serif" font-size="14" lengthAdjust="spacing" textLength="85.6611" x="1355.2" y="499.2857">Disco: 80GB</text></g><!--entity Grupo de nodos\n(0 nodos activos por defecto)--><g id="elem_Grupo de nodos\n(0 nodos activos por defecto)"><rect fill="#F1F1F1" height="62.5938" rx="2.5" ry="2.5" style="stroke:#181818;stroke-width:0.5;" width="245.6182" x="1533.98" y="441.8369"/><rect fill="#F1F1F1" height="10" style="stroke:#181818;stroke-width:0.5;" width="15" x="1759.5982" y="446.8369"/><rect fill="#F1F1F1" height="2" style="stroke:#181818;stroke-width:0.5;" width="4" x="1757.5982" y="448.8369"/><rect fill="#F1F1F1" height="2" style="stroke:#181818;stroke-width:0.5;" width="4" x="1757.5982" y="452.8369"/><text fill="#000000" font-family="sans-serif" font-size="14" lengthAdjust="spacing" textLength="111.5146" x="1548.98" y="474.832">Grupo de nodos</text><text fill="#000000" font-family="sans-serif" font-size="14" lengthAdjust="spacing" textLength="205.6182" x="1548.98" y="491.1289">(0 nodos activos por defecto)</text></g><!--entity Registro inmutable\nProcesos y transacciones--><g id="elem_Registro inmutable\nProcesos y transacciones"><rect fill="#F1F1F1" height="62.5938" rx="2.5" ry="2.5" style="stroke:#181818;stroke-width:0.5;" width="216.6133" x="1163.48" y="701.5869"/><rect fill="#F1F1F1" height="10" style="stroke:#181818;stroke-width:0.5;" width="15" x="1360.0933" y="706.5869"/><rect fill="#F1F1F1" height="2" style="stroke:#181818;stroke-width:0.5;" width="4" x="1358.0933" y="708.5869"/><rect fill="#F1F1F1" height="2" style="stroke:#181818;stroke-width:0.5;" width="4" x="1358.0933" y="712.5869"/><text fill="#000000" font-family="sans-serif" font-size="14" lengthAdjust="spacing" textLength="133.4033" x="1178.48" y="734.582">Registro inmutable</text><text fill="#000000" font-family="sans-serif" font-size="14" lengthAdjust="spacing" textLength="176.6133" x="1178.48" y="750.8789">Procesos y transacciones</text></g><!--entity Project--><g id="elem_Project"><path d="M50.4432,114.7785 C55.5189,104.5898 63.965,103.6924 71.597,111.8272 C81.0641,96.7352 90.8409,100.2288 99.7114,112.4415 C105.0982,99.5702 116.6172,100.3302 123.9575,110.3747 C132.5114,96.3835 141.0082,96.0818 151.7285,108.0578 C158.5593,95.2615 170.4271,96.5021 176.8632,108.4586 C184.3898,96.7763 192.2871,95.0216 201.1324,107.1125 C207.1186,93.9308 218.4249,93.1481 227.0672,104.2792 C234.9767,94.7638 245.5531,96.2296 251.365,106.8148 C260.9485,93.2711 272.4077,92.6579 279.9501,108.7814 C287.0966,96.0508 297.6817,96.3387 305.5345,108.0419 C314.2492,98.6583 323.4079,97.8264 328.6088,111.5507 C338.9153,100.4197 346.7197,102.5623 354.9763,113.9509 C363.0493,98.4775 371.6634,99.7495 382.3502,111.3037 C390.388,100.998 398.9477,100.5846 405.5456,112.7875 C410.326,112.1892 411.4699,115.3618 410.3175,119.1873 C415.0173,119.3795 417.3097,122.7654 414.606,127.0142 C417.2773,132.2231 415.36,134.7457 409.9637,135.5847 C414.7741,139.9875 413.9721,143.9912 407.8936,146.2879 C397.9512,158.0573 388.5081,156.9606 379.7807,144.8572 C371.2482,157.1275 361.8502,156.8675 353.1757,145.0138 C346.2438,155.4912 337.3827,156.8196 330.6162,144.8475 C325.5765,157.8657 314.738,158.3636 305.8418,149.1439 C296.613,161.1108 285.4317,162.6503 276.9743,148.2979 C271.1128,159.0462 259.9514,162.6646 252.6515,149.7781 C245.5255,163.2566 235.5403,165.8745 225.8152,152.3622 C218.3863,162.0549 206.8973,161.6405 202.2102,149.4102 C195.0224,160.2618 182.8793,162.8992 175.6065,149.5034 C168.5006,159.453 158.9625,162.3738 151.9117,149.4463 C144.0644,162.8282 131.2914,161.1624 124.8962,147.9701 C116.1661,158.7013 103.5879,159.9984 97.0186,145.5754 C91.2287,155.6545 82.5655,155.439 75.834,146.6315 C66.9452,158.4805 52.1611,156.7303 46.1805,143.2295 C41.8655,142.2869 40.0414,139.5133 43.1925,135.6337 C39.6231,133.954 38.2643,131.0333 41.6824,127.9758 C39.1701,124.4924 39.7155,121.3501 44.2016,120.1076 C43.0187,115.5264 46.3209,113.1459 50.4432,114.7785 " fill="#F1F1F1" style="stroke:#181818;stroke-width:0.5;"/><text fill="#000000" font-family="sans-serif" font-size="14" lengthAdjust="spacing" textLength="343.9092" x="52.83" y="131.502">Google Cloud Project: atomic-energy-438322-m8</text></g><g id="elem_GMN31"><path d="M6,231.6769 L6,256.8097 L411.5791,256.8097 L411.5791,241.6769 L401.5791,231.6769 L6,231.6769 " fill="#FEFFDD" style="stroke:#181818;stroke-width:0.5;"/><path d="M401.5791,231.6769 L401.5791,241.6769 L411.5791,241.6769 L401.5791,231.6769 " fill="#FEFFDD" style="stroke:#181818;stroke-width:1;"/><text fill="#000000" font-family="sans-serif" font-size="13" lengthAdjust="spacing" textLength="384.5791" x="12" y="248.7438">"Direcci&#243;n NAT externa\n(no aplica en esta configuraci&#243;n)"</text></g><g id="elem_GMN34"><path d="M1667.72,720.3169 L1667.72,745.4497 L1961.866,745.4497 L1961.866,730.3169 L1951.866,720.3169 L1667.72,720.3169 " fill="#FEFFDD" style="stroke:#181818;stroke-width:0.5;"/><path d="M1951.866,720.3169 L1951.866,730.3169 L1961.866,730.3169 L1951.866,720.3169 " fill="#FEFFDD" style="stroke:#181818;stroke-width:1;"/><text fill="#000000" font-family="sans-serif" font-size="13" lengthAdjust="spacing" textLength="273.146" x="1673.72" y="737.3838">"Nombre del cl&#250;ster:\ntripcode-mongodb"</text></g><!--link VPC to Subnet--><g id="link_VPC_Subnet"><path d="M578.79,127.4069 C578.79,133.6269 578.79,171.1869 578.79,203.3169 " fill="none" id="VPC-to-Subnet" style="stroke:#181818;stroke-width:1;"/><polygon fill="#181818" points="578.79,209.3169,582.79,200.3169,578.79,204.3169,574.79,200.3169,578.79,209.3169" style="stroke:#181818;stroke-width:1;"/></g><!--link Subnet to NATRouter--><g id="link_Subnet_NATRouter"><path d="M578.79,279.0069 C578.79,326.1569 578.79,403.1269 578.79,443.5969 " fill="none" id="Subnet-to-NATRouter" style="stroke:#181818;stroke-width:1;"/><polygon fill="#181818" points="578.79,449.5969,582.79,440.5969,578.79,444.5969,574.79,440.5969,578.79,449.5969" style="stroke:#181818;stroke-width:1;"/></g><!--link NATRouter to CloudNAT--><g id="link_NATRouter_CloudNAT"><path d="M579.79,496.6469 C579.79,545.9769 579.79,653.7969 579.79,703.2369 " fill="none" id="NATRouter-to-CloudNAT" style="stroke:#181818;stroke-width:1;"/><polygon fill="#181818" points="579.79,709.2369,583.79,700.2369,579.79,704.2369,575.79,700.2369,579.79,709.2369" style="stroke:#181818;stroke-width:1;"/></g><!--link Subnet to VMs--><g id="link_Subnet_VMs"><path d="M674.07,256.1769 C848.56,256.1769 1201.67,256.1769 1201.67,256.1769 C1201.67,256.1769 1201.67,310.4269 1201.67,364.6769 C1201.67,371.4581 1201.67,372.2394 1201.67,378.9147 " fill="none" id="Subnet-to-VMs" style="stroke:#181818;stroke-width:1;"/><polygon fill="#181818" points="1201.67,384.9147,1205.67,375.9147,1201.67,379.9147,1197.67,375.9147,1201.67,384.9147" style="stroke:#181818;stroke-width:1;"/></g><!--link VMs to NATRouter--><g id="link_VMs_NATRouter"><path d="M1219.79,385.5322 C1219.79,385.463 1219.79,385.3948 1219.79,385.3276 C1219.79,385.1932 1219.79,385.0628 1219.79,384.9363 C1219.79,384.6833 1219.79,384.4463 1219.79,384.2258 C1219.79,383.7849 1219.79,383.4103 1219.79,383.1067 C1219.79,382.4996 1219.79,382.1769 1219.79,382.1769 C1219.79,382.1769 698.82,382.1769 698.82,382.1769 C698.82,382.1769 698.82,416.7669 698.82,443.7169 " fill="none" id="VMs-to-NATRouter" style="stroke:#181818;stroke-width:1;"/><polygon fill="#181818" points="698.82,449.7169,702.82,440.7169,698.82,444.7169,694.82,440.7169,698.82,449.7169" style="stroke:#181818;stroke-width:1;"/><text fill="#000000" font-family="sans-serif" font-size="13" lengthAdjust="spacing" textLength="162.6841" x="807.73" y="378.2438">Acceso seguro a Internet</text></g><!--link Subnet to Cluster--><g id="link_Subnet_Cluster"><path d="M674.06,233.1769 C975.52,233.1769 1888.83,233.1769 1888.83,233.1769 C1888.83,233.1769 1888.83,473.1769 1888.83,473.1769 C1888.83,473.1769 1872.56,473.1769 1855.2737,473.1769 C1846.6306,473.1769 1837.7334,473.1769 1830.4889,473.1769 C1828.6778,473.1769 1826.9699,473.1769 1825.3952,473.1769 C1824.6078,473.1769 1823.8537,473.1769 1823.1366,473.1769 C1823.0469,473.1769 1828.9579,473.1769 1828.8694,473.1769 " fill="none" id="Subnet-to-Cluster" style="stroke:#181818;stroke-width:1;"/><polygon fill="#181818" points="1822.8694,473.1769,1831.8694,477.1769,1827.8694,473.1769,1831.8694,469.1769,1822.8694,473.1769" style="stroke:#181818;stroke-width:1;"/></g><!--link Cluster to NATRouter--><g id="link_Cluster_NATRouter"><path d="M1796.69,412.8718 C1796.69,408.5036 1796.69,380.2667 1796.69,376.1066 C1796.69,367.7863 1796.69,360.0206 1796.69,353.3644 C1796.69,340.0519 1796.69,331.1769 1796.69,331.1769 C1796.69,331.1769 686.29,331.1769 686.29,331.1769 C686.29,331.1769 686.29,403.3769 686.29,443.6969 " fill="none" id="Cluster-to-NATRouter" style="stroke:#181818;stroke-width:1;"/><polygon fill="#181818" points="686.29,449.6969,690.29,440.6969,686.29,444.6969,682.29,440.6969,686.29,449.6969" style="stroke:#181818;stroke-width:1;"/><text fill="#000000" font-family="sans-serif" font-size="13" lengthAdjust="spacing" textLength="162.6841" x="1098.89" y="327.2438">Acceso seguro a Internet</text></g><!--link VMs to Blockchain--><g id="link_VMs_Blockchain"><path d="M1219.79,536.6363 C1219.79,536.8855 1219.79,537.1348 1219.79,537.3841 C1219.79,537.8828 1219.79,538.3816 1219.79,538.8806 C1219.79,540.8765 1219.79,542.8738 1219.79,544.8656 C1219.79,576.7344 1219.79,607.1769 1219.79,607.1769 C1219.79,607.1769 1415.79,607.1769 1415.79,607.1769 C1415.79,607.1769 1415.79,614.3138 1415.79,625.1864 C1415.79,627.9046 1415.79,630.8562 1415.79,633.9882 C1415.79,635.5542 1415.79,637.1653 1415.79,638.8148 C1415.79,639.6396 1415.79,640.474 1415.79,641.3171 C1415.79,641.7387 1415.79,642.1625 1415.79,642.5883 C1415.79,642.8013 1415.79,637.0147 1415.79,637.2287 " fill="none" id="VMs-to-Blockchain" style="stroke:#181818;stroke-width:1;"/><polygon fill="#181818" points="1415.79,643.2287,1419.79,634.2287,1415.79,638.2287,1411.79,634.2287,1415.79,643.2287" style="stroke:#181818;stroke-width:1;"/><text fill="#000000" font-family="sans-serif" font-size="13" lengthAdjust="spacing" textLength="187.5923" x="1314.65" y="620.2438">Registro de procesos cr&#237;ticos</text></g><!--link Cluster to Blockchain--><g id="link_Cluster_Blockchain"><path d="M1519.44,538.0504 C1519.44,540.2448 1519.44,542.455 1519.44,544.6786 C1519.44,549.126 1519.44,553.6273 1519.44,558.1647 C1519.44,567.2394 1519.44,576.4581 1519.44,585.6769 C1519.44,659.4269 1519.44,733.1769 1519.44,733.1769 C1519.44,733.1769 1495.9,733.1769 1471.2563,733.1769 C1458.9344,733.1769 1446.3366,733.1769 1436.2673,733.1769 C1433.75,733.1769 1431.3908,733.1769 1429.2334,733.1769 C1428.1547,733.1769 1427.1264,733.1769 1426.1541,733.1769 C1425.668,733.1769 1425.1958,733.1769 1424.7383,733.1769 C1424.5096,733.1769 1430.2845,733.1769 1430.0632,733.1769 " fill="none" id="Cluster-to-Blockchain" style="stroke:#181818;stroke-width:1;"/><polygon fill="#181818" points="1424.0632,733.1769,1433.0632,737.1769,1429.0632,733.1769,1433.0632,729.1769,1424.0632,733.1769" style="stroke:#181818;stroke-width:1;"/><text fill="#000000" font-family="sans-serif" font-size="13" lengthAdjust="spacing" textLength="183.3521" x="1381.69" y="485.2838">Trazabilidad de operaciones</text></g><!--link GMN31 to NATRouter--><g id="link_GMN31_NATRouter"><path d="M411.79,245.1769 C443.5,245.1769 466.02,245.1769 466.02,245.1769 C466.02,245.1769 466.02,391.3569 466.02,449.5969 " fill="none" id="GMN31-NATRouter" style="stroke:#181818;stroke-width:1;stroke-dasharray:7.0,7.0;"/></g><!--link Cluster to GMN34--><g id="link_Cluster_GMN34"><path d="M1814.79,537.4746 C1814.79,538.217 1814.79,538.9632 1814.79,539.7132 C1814.79,541.2132 1814.79,542.7282 1814.79,544.2569 C1814.79,556.4863 1814.79,569.5966 1814.79,582.9981 C1814.79,636.6044 1814.79,694.8719 1814.79,720.0769 " fill="none" id="Cluster-GMN34" style="stroke:#181818;stroke-width:1;stroke-dasharray:7.0,7.0;"/></g><!--SRC=[fLJ1Rjim3BtxAmYVreEt9Es6meS1QGeKnP2kI8DUcXveMKcrsg8coSMweH-p3zXfjrtpOwFaE7MM3XWm144SaU_nyOccLxwICBQV6-Mby8r5a1hEY5PyFAceAU6oGhyaM-U0dcebCgcbNJrcHuV7XwDHLXydYRjNsg356YgbfNyq4iZwEqeI4IdINK9BdxZMN_bIGDSb9KkgIccPGJglrZyrb4nZPIcrK5X95vFFnrFubW3SpEGg9WdIIxNYRagy3UTz13WP8kusUKeIW-8ULnBI2Hg4KGupMS8ZN3L5G31xeDN4HTFhoqaEtYeZ-6_sO4GipQSn1y2oNDIXpRI5zx9TKx0l2ptZ1CfXE7WTFs-6xnPwh5p5EYFRLSnZkYV-2geDQQazf3DgFBjmCPxtI3NwpCP0n7AmJTk5jfxl8ICanZYKC2GqacNldoMq3_6iJxrzZf4jmvwNXpbCrzzvhdHmILdVjDVLCtGAvzgnPs9pZTTJj_7ovdhQzxhE1WizLuQjapmXibHDlT1N7tCubOL23SFHxSkuuR_WddQxPHd13nQpqplaa8u5QwLsWWYGzNE0SUb-_qSvcxF-vGAIk_tG536piw2RwqdLX9IUwffuHifYSq4nshboGIM1qYeCyWkDdIed-EHuS7QoiUFCDeP2UNQSt4A_6hHFWCAh1_ur5DGjUNJfu0KhDlNvi5FoFvQypU6a8d4lxb3freOIFHReE2Fsnahx6Up0yz_EXF2EEs-34NN3w4ekD6-BeCBng-ijQeT2A9v_rxNKNMQFZQLlcRYiwHY4NV_mIf1B_-Xw5pkt-1KBLQaIou0d8ossHMFdchm4JmPesNjzqbF5QqB47SMd8By4iv0lHhDtfb8Yxb_UTVYymsBwGPf8NKAWRRaByhm-0trtIMnXpNk7rLGWDgENB_JUO6s9VWC0]--></g></svg>